<?xml version="1.0" encoding="utf-8"?>
<!-- Generator: Adobe Illustrator 16.0.0, SVG Export Plug-In . SVG Version: 6.00 Build 0)  -->
<!DOCTYPE svg PUBLIC "-//W3C//DTD SVG 1.1//EN" "http://www.w3.org/Graphics/SVG/1.1/DTD/svg11.dtd">
<svg version="1.1" id="Isolation_Mode" xmlns="http://www.w3.org/2000/svg" xmlns:xlink="http://www.w3.org/1999/xlink" x="0px"
	 y="0px" width="20.9px" height="23px" viewBox="0 0 20.9 23" style="enable-background:new 0 0 20.9 23;" xml:space="preserve">
<path style="fill:#FFFFFF;" d="M20.9,9.6c-1.1-1.3-2.1-1.7-3.1-1.9c1.2-1.4,1.3-2.8,0.9-4.8c-1.8,0.2-3.5,1-4.2,2.6
	C14.5,5.4,14.2,5.1,14,5c0.4-1.3,0.2-2.5-0.4-4.1c-1.4,0.6-2.2,0.9-3.1,2.1c-0.2-0.6-0.5-1.1-1-1.7c-0.8,0.4-1.4,1-1.8,1.6
	C7.5,1.8,6.7,0.9,5,0C3.8,1.9,3.7,3.2,4.1,4.4C2.8,4.1,1.8,4.4,0.5,4.7C0.9,6.1,1.3,7,2.2,7.8C1.5,8.1,0.8,8.6,0,9.3
	c0.7,0.9,1.3,1.5,2.3,1.9c-0.6,0.5-1.1,1.6-1.5,2.6c1,0.5,4.7,1.6,6.4-1.4c0.9,1.5,1,2.7,1,4.8c0,1.7-0.7,4.3-1.9,5.9H14
	c-1.2-1.5-1.9-4.2-1.9-5.9c0-2.1,0.1-3.3,1.1-4.9c0.9,2.4,3.8,2.5,5.6,1.8c-0.1-0.9-0.4-1.9-1-2.6C18.8,11.4,20,10.9,20.9,9.6z
	 M1.7,9.4c1.2-1,3.1-0.7,3.9,0.3C4.5,10.6,2.8,10.6,1.7,9.4z M2.4,13.2c0.6-1.6,2.2-2.1,3.9-1.6C5.5,13.2,4,13.6,2.4,13.2z M2,5.5
	C4.1,5.2,5.6,6.1,6.6,8C4.1,8.2,2.7,7.1,2,5.5z M6.6,5.8C5.2,5,4.7,3.2,5.4,1.7C6.8,2.6,7.3,4.4,6.6,5.8z M9.3,2.9
	c0.9,1.5,0.6,3.5-0.8,4.4C7.7,6,7.8,4.2,9.3,2.9z M7.2,10.6c0.2-1.5,1.4-2.8,3.4-2.8C10.3,9.7,8.7,10.7,7.2,10.6z M11.2,13
	c-1.1-1.1-0.9-3,0.4-3.9C12.6,10.3,12.3,12.2,11.2,13z M11.1,6.6c-0.5-1.3,0-3.2,1.9-4.1C13.5,4.4,12.5,6,11.1,6.6z M13.5,10.1
	c-1.2-1.2-1.1-3.1,0-4.1C14.5,6.9,14.6,8.9,13.5,10.1z M17.8,4.3c0.3,1.2-0.5,3.2-2.4,3.4C15.1,6,16.4,4.5,17.8,4.3z M14.2,11.3
	c1.5-0.2,3,0.5,3.2,1.9C15.8,13.5,14.4,12.8,14.2,11.3z M14.9,9.6c0.9-1,3.2-1.2,4.4,0C18.3,10.8,15.6,10.6,14.9,9.6z"/>
</svg>
